<svg width="69" height="74" viewBox="0 0 69 74" fill="none" xmlns="http://www.w3.org/2000/svg">
<path d="M18.6388 13.9154C23.5652 9.43207 30.014 5.87415 36.3091 6.19325C42.6135 6.47786 48.7642 10.6395 54.0593 15.7917C59.3545 20.9439 63.716 27.1027 63.4922 33.0309C63.234 38.9499 58.3123 44.6543 53.9027 50.2372C49.4587 55.8109 45.5174 61.2975 39.9334 63.8303C34.3586 66.3287 27.1067 65.8641 20.5931 63.1947C14.0358 60.5505 8.21682 55.7015 6.03086 49.6821C3.85414 43.6281 5.31044 36.4037 7.7704 30.1136C10.2396 23.789 13.7124 18.3987 18.6388 13.9154Z" fill="#FFDBB4"/>
<path fill-rule="evenodd" clip-rule="evenodd" d="M33.6803 15.2437C38.9439 15.2437 44.3882 19.3588 46.3176 21.9847C48.5486 25.0211 50.3085 39.5972 49.4829 44.5432C48.6573 49.4892 44.5563 54.88 37.437 54.88C30.3178 54.88 25.9852 53.9956 25.8115 52.7109C25.6957 51.8545 24.1304 49.0427 21.1158 44.2755C18.0326 43.4009 16.4849 41.9189 16.4728 39.8296C16.4608 37.7403 17.287 36.3155 18.9512 35.5554C18.3578 27.3101 18.8083 22.1141 20.3028 19.9674C22.5445 16.7474 28.4167 15.2437 33.6803 15.2437Z" fill="#EDB98A"/>
<path fill-rule="evenodd" clip-rule="evenodd" d="M31.0004 14.0039L31.0943 14.0043C36.9181 14.0423 42.8413 16.7452 46.3061 21.4669L46.4103 21.6106C46.416 21.6181 46.5197 21.7738 46.5442 21.8181C46.6878 22.0781 46.857 22.3213 46.9867 22.5856C47.0963 22.81 47.1692 23.0607 47.2497 23.2997L47.2741 23.371C47.4809 23.9676 47.6551 24.5697 47.8091 25.1821C48.1075 26.3742 48.3402 27.585 48.5665 28.793C49.3748 33.1187 49.9034 37.5061 50.1698 41.8992L50.2223 42.7826C50.2761 43.6988 50.3167 44.6189 50.2147 45.5321C50.0968 46.5951 49.7938 47.5928 49.3349 48.5558C48.9121 49.444 48.3671 50.2668 47.7433 51.0232C47.4096 51.4281 47.0554 51.8217 46.6197 52.118C46.273 52.3537 45.8678 52.5089 45.4776 52.6585C44.8427 53.2981 44.0278 53.7814 43.2315 54.1676C41.9189 54.8024 40.4959 55.1531 39.0563 55.3288C37.5842 55.5073 36.0973 55.4644 34.6373 55.2092C33.2421 54.9661 31.7468 54.3443 30.8875 53.1597C30.8134 53.0578 30.9514 52.9615 31.0423 53.0035C33.536 54.1676 36.3382 54.4715 39.0563 54.104C40.3244 53.9329 41.5721 53.5795 42.73 53.0306C43.7071 52.5678 44.5311 51.8946 45.4081 51.285C45.5787 51.056 45.751 50.8306 45.9477 50.6212L46.2544 50.2968C46.4837 50.0531 46.7088 49.8061 46.9135 49.5394C47.5458 48.7176 48.0695 47.7854 48.4154 46.8046C49.088 44.8954 48.9061 42.823 48.7872 40.8333L48.7769 40.658C48.6545 38.53 48.4551 36.4094 48.179 34.2963C47.9026 32.1805 47.5513 30.073 47.1361 27.9805C46.9312 26.9492 46.7012 25.9245 46.4983 24.8932C46.3935 24.3612 46.3203 23.8217 46.2406 23.2841C46.1923 22.9568 46.1932 22.6417 46.1923 22.322C46.1831 22.3369 46.1719 22.351 46.1608 22.365C46.1942 22.4445 46.1711 22.5464 46.0895 22.5931C45.7808 22.7708 45.4248 22.7109 45.0772 22.7119C44.7082 22.7137 44.3392 22.7147 43.9703 22.7156C43.586 22.717 43.2018 22.717 42.8175 22.7164L41.6648 22.7137L37.0539 22.6997C34.0342 22.6906 30.9633 22.8117 27.9534 22.5246L27.7236 22.5017C27.4871 22.4742 24.8178 22.145 24.096 22.06L24.074 22.0574C22.7548 21.904 21.4543 21.6768 20.1723 21.3365C20.5912 21.5057 20.9945 21.7339 21.4097 21.9068C21.9456 22.1294 22.4953 22.3238 23.0451 22.5099C24.1732 22.8923 25.3032 23.2635 26.4267 23.6581C26.7488 23.771 27.4808 26.5543 27.6653 26.9946L27.6707 27.0072C27.7644 27.2194 27.8933 27.4522 27.8218 27.6935C27.6643 28.2264 26.829 28.621 26.4147 28.922L25.9887 29.2321L25.4316 29.6386C25.2031 29.8037 24.9922 29.93 24.6932 29.8355C24.6923 29.8346 24.6914 29.8346 24.6905 29.8346C24.9464 31.0323 25.0706 34.906 25.1086 35.5857C25.1419 36.1775 25.3143 36.9358 25.0399 37.4753C24.975 37.6034 24.8064 37.7044 24.6626 37.6941C24.0359 37.6464 23.4094 37.5996 22.7827 37.5529C22.6148 37.5398 22.4619 37.4435 22.4155 37.2715L22.4137 37.2621C22.3934 37.2677 22.3702 37.264 22.3507 37.2434C22.3164 37.2088 22.2812 37.1752 22.245 37.1424C21.42 36.4001 20.1296 36.2168 19.1117 36.603C18.5778 36.8049 17.9706 37.1452 17.5942 37.5866C17.1761 38.0765 17.0863 38.7609 17.0853 39.3864C17.0834 40.5925 17.5155 41.8136 18.397 42.6504C19.207 43.4186 20.2521 43.6421 21.3036 43.862L21.4163 43.8856C21.6563 43.936 21.7324 44.2969 21.5517 44.4484C22.0328 44.9234 22.4481 45.49 22.8532 46.0126C23.3911 46.706 23.9055 47.4269 24.406 48.1493L24.6475 48.4988C25.5085 49.738 26.7546 51.445 26.2126 52.9942C26.1403 53.2027 25.8381 53.2775 25.7203 53.0587C25.3338 52.3388 25.1178 51.5459 24.7507 50.8175C24.3902 50.1032 23.9415 49.4412 23.4964 48.7793L23.2397 48.3956C22.8124 47.755 22.389 47.1074 21.9965 46.4474L21.7233 45.9905C21.4665 45.559 21.2124 45.1131 21.0232 44.6494C19.7578 44.957 18.3821 44.2726 17.4931 43.361C16.3753 42.2129 15.8497 40.5215 15.9942 38.9311C16.0703 38.0989 16.3141 37.2939 16.9184 36.6955C16.9796 36.6357 17.0436 36.5786 17.1095 36.5216C17.0863 36.5095 17.0668 36.4908 17.0575 36.4683C16.6524 35.4978 16.5661 34.3412 16.5318 33.2959C16.4958 32.2151 16.519 31.1314 16.6004 30.0524C16.7498 28.074 17.1038 26.1059 17.6657 24.2041C18.4971 21.3935 19.9257 18.6419 22.208 16.756C24.6417 14.7446 27.9023 13.9987 31.0004 14.0039ZM18.8856 38.587C19.2293 38.4297 19.7655 38.7099 20.0715 38.8885L20.0916 38.9002C20.9954 39.4303 21.6388 40.3335 21.9363 41.334C22.1273 41.9791 21.0547 42.2362 20.9639 41.6042C20.8898 41.089 20.7192 40.6066 20.4384 40.1755C20.3715 40.198 20.3066 40.227 20.2483 40.2644C20.0249 40.4102 19.895 40.6608 19.5846 40.6234C19.3546 40.5963 19.1191 40.4355 19.1349 40.1699C19.16 39.7314 19.5103 39.5566 19.8859 39.5341C19.8323 39.4857 19.7782 39.4379 19.7228 39.3917L19.6622 39.3426C19.5935 39.2926 18.8589 38.7815 18.8378 38.913L18.8373 38.9208C18.8383 38.9731 18.7687 39.0031 18.7335 38.9638C18.5917 38.8105 18.7234 38.6618 18.8856 38.587Z" fill="black"/>
<path fill-rule="evenodd" clip-rule="evenodd" d="M37.732 43.9506C38.2517 43.0903 39.3593 45.1979 39.477 45.5603C39.5813 45.8813 39.6501 46.2102 39.6851 46.5429C40.0879 46.6338 40.5063 46.6339 40.9191 46.5543C41.5327 46.4358 41.9077 46.1038 42.441 45.8188C42.8093 45.6218 43.2735 45.8528 43.465 46.1794C43.6903 46.564 43.5468 46.9631 43.2505 47.2497C42.6885 47.7933 41.5829 47.9182 40.8494 47.7738C40.4291 47.6911 40.044 47.5325 39.7038 47.302C39.7016 47.345 39.7001 47.388 39.6967 47.431L39.6902 47.5055C39.6338 48.1084 39.4692 48.8665 39.0039 49.2587C38.2409 49.9022 37.2991 48.6647 38.0406 48.0219L38.0636 48.0026C38.5244 47.6278 38.625 46.6223 38.6002 46.0684C38.5839 45.7069 38.5185 45.3408 38.4051 44.9965L38.3817 44.9279C38.3476 44.8306 37.9754 43.9081 37.8409 44.0255L37.8345 44.0322C37.779 44.0988 37.6894 44.0212 37.732 43.9506ZM41.8812 39.0957C42.5827 39.5249 43.6515 40.5256 42.8969 41.5896C42.0086 42.5277 40.7296 41.4521 40.0994 40.9656C39.515 40.5886 38.8584 41.5582 39.4006 41.9984C43.9547 45.392 45.8029 39.2079 42.236 38.5911C41.8432 38.5232 41.6974 38.963 41.8812 39.0957ZM34.3904 35.1289C35.076 35.0065 35.7783 35.1781 36.3456 35.5818L36.3886 35.6129C36.9351 36.0152 37.5467 36.7216 37.233 37.4151C37.1072 37.6935 36.7302 37.7372 36.491 37.611C36.0927 37.4008 36.0205 36.8837 35.6652 36.5975C35.3738 36.3629 34.9814 36.2206 34.6061 36.2549C33.7244 36.3355 33.1821 37.2107 32.9082 37.965C32.8732 38.0615 32.7325 38.0989 32.6775 37.9954C32.0317 36.7806 33.1747 35.346 34.3904 35.1289ZM45.3718 34.6704C46.685 34.5615 48.2222 35.9318 47.8764 37.327C47.7106 37.9965 46.724 37.9773 46.5486 37.327C46.452 36.9692 46.4617 36.6526 46.2058 36.3555C45.9945 36.1101 45.6944 35.9676 45.3718 35.9895C45.0161 36.0137 44.6881 36.1925 44.4389 36.4439C44.2138 36.6709 44.0792 37.0031 43.846 37.2041C43.7886 37.2534 43.7118 37.2566 43.6551 37.2041C43.2538 36.8317 43.4947 36.0564 43.7491 35.6676C44.1133 35.1113 44.7062 34.7257 45.3718 34.6704ZM31.8895 32.6544C32.732 31.9038 34.2629 31.1789 35.3989 31.5483C36.052 31.7607 36.3368 32.8199 35.6076 33.1557C34.7633 33.5444 33.7898 33.3862 32.9304 33.7892C32.5695 33.9585 32.2301 34.1701 31.9788 34.4804C31.7808 34.725 31.5794 35.0469 31.2931 35.1879C31.2179 35.225 31.116 35.2259 31.0557 35.1571C30.4281 34.4426 31.3415 33.1426 31.8895 32.6544ZM43.9237 31.5111C44.4444 31.364 45.022 31.367 45.551 31.4594C46.0797 31.5517 46.6166 31.7723 47.0483 32.094L47.0984 32.1317C47.5697 32.4891 48.1321 33.0092 48.1019 33.6424C48.0767 34.1711 47.5241 34.5287 47.047 34.2516C46.658 34.0256 46.475 33.5729 46.1457 33.2715C45.874 33.0227 45.5548 32.8265 45.2142 32.6891C44.836 32.5364 44.457 32.4648 44.0511 32.458C43.7385 32.4528 43.424 32.556 43.1173 32.589C43.1425 32.6412 42.9001 32.6169 42.7611 32.5706C42.6582 32.5265 42.6576 32.3955 42.6933 32.3105C42.8703 31.8895 43.5141 31.6266 43.9237 31.5111Z" fill="black"/>
<path fill-rule="evenodd" clip-rule="evenodd" d="M52.6686 31.9772C52.5922 31.9644 52.5156 31.9524 52.4391 31.9411C52.3793 31.9069 52.3092 31.8807 52.2276 31.8648C52.0414 31.8173 51.8564 31.7852 51.6718 31.7679C49.0212 31.1675 42.8894 32.02 42.6364 34.2965C41.7923 34.58 41.062 34.3261 40.0837 34.3514C39.339 31.2187 26.4651 31.6608 25.846 33.5495C25.8436 33.5489 25.8413 33.5483 25.8389 33.5475C25.244 33.3622 24.367 33.4069 23.686 33.3776C22.2321 33.3469 20.7765 33.4773 19.354 33.786C16.6902 34.212 13.0547 34.7109 14.9073 38.0589C14.9077 38.0594 14.908 38.0601 14.9084 38.0606L14.9087 38.0603C15.228 38.3897 15.7699 38.1245 15.79 37.6786C15.1671 36.0925 16.574 35.902 17.6564 35.4462C20.3497 34.4723 23.0919 34.3373 25.8775 34.6386C26.087 34.8869 26.405 35.1035 26.7411 35.2168C28.6036 35.5279 27.6221 36.9185 28.7993 37.1207C28.5831 41.9678 34.4301 44.6137 37.8179 41.4273C39.1706 40.0963 39.493 38.1245 39.8066 36.3472C39.9725 36.3097 40.0779 36.2184 40.1395 36.0976C40.5383 35.6969 40.7888 35.3268 41.5774 35.2168C42.366 35.1068 42.9731 35.3276 43.0552 35.3952C43.0759 35.4372 43.0982 35.4792 43.124 35.5213C43.16 35.584 43.2091 35.6341 43.2648 35.6734C42.4861 40.5002 46.2091 43.5527 49.9676 41.0493C51.6007 39.5031 51.9458 37.1359 52.014 35.023C52.2354 34.8886 52.3755 34.628 52.2989 34.3004C52.1933 33.8488 52.4409 33.4578 52.8354 33.2614C53.3479 33.0065 53.2572 32.0753 52.6686 31.9772ZM36.5188 34.2671C36.0523 34.1638 35.853 34.8878 36.321 34.9913C36.6525 35.0647 36.9333 35.2329 37.1231 35.5178L37.1431 35.5488C37.3977 35.9567 38.0416 35.5802 37.7852 35.1697C37.4967 34.7078 37.0484 34.3843 36.5188 34.2671ZM50.1826 33.8183C50.0181 33.7017 49.7692 33.7882 49.6738 33.953C49.5687 34.1344 49.6376 34.3364 49.7916 34.4551L49.8073 34.4667C49.9486 34.5669 50.0862 34.7466 50.1034 34.9307L50.105 34.9537C50.1235 35.4354 50.8673 35.4379 50.8487 34.9537C50.8306 34.48 50.5581 34.0843 50.1826 33.8183Z" fill="black"/>
</svg>
