<svg width="114" height="19" viewBox="0 0 114 19" fill="none" xmlns="http://www.w3.org/2000/svg">
<path d="M3.08332 4.73206C4.17014 3.0623 5.76601 1.5462 7.6081 1.16516C9.45025 0.773427 11.5386 1.51675 13.4542 2.61148C15.3697 3.70621 17.0911 5.16287 17.4708 6.89758C17.8398 8.63223 16.8459 10.6555 15.9907 12.605C15.1249 14.5544 14.3979 16.4408 12.9749 17.5948C11.5521 18.7381 9.42275 19.149 7.3414 18.8654C5.24931 18.5924 3.20522 17.6249 2.12269 16.045C1.04024 14.4544 0.919361 12.2514 1.15839 10.2436C1.39749 8.22508 1.99651 6.40183 3.08332 4.73206Z" fill="#FF8961"/>
<path d="M48.0833 4.73181C49.1701 3.06206 50.766 1.54596 52.6081 1.16491C54.4502 0.773183 56.5386 1.51651 58.4542 2.61123C60.3697 3.70596 62.0911 5.16262 62.4708 6.89735C62.8398 8.632 61.8459 10.6552 60.9907 12.6048C60.1249 14.5542 59.3979 16.4406 57.9749 17.5946C56.5521 18.7379 54.4227 19.1487 52.3414 18.8651C50.2493 18.5921 48.2052 17.6247 47.1227 16.0448C46.0402 14.4542 45.9194 12.2511 46.1584 10.2433C46.3975 8.2248 46.9965 6.40155 48.0833 4.73181Z" fill="#FFDBB4"/>
<path d="M93.0833 4.73181C94.1701 3.06206 95.766 1.54596 97.6081 1.16491C99.4502 0.773183 101.539 1.51651 103.454 2.61123C105.37 3.70596 107.091 5.16262 107.471 6.89735C107.84 8.632 106.846 10.6552 105.991 12.6048C105.125 14.5542 104.398 16.4406 102.975 17.5946C101.552 18.7379 99.4227 19.1487 97.3414 18.8651C95.2493 18.5921 93.2052 17.6247 92.1227 16.0448C91.0402 14.4542 90.9194 12.2511 91.1584 10.2433C91.3975 8.2248 91.9965 6.40155 93.0833 4.73181Z" fill="#FFDBB4"/>
<path d="M70.0833 4.73181C71.1701 3.06206 72.766 1.54596 74.6081 1.16491C76.4502 0.773183 78.5386 1.51651 80.4542 2.61123C82.3697 3.70596 84.0911 5.16262 84.4708 6.89735C84.8398 8.632 83.8459 10.6552 82.9907 12.6048C82.1249 14.5542 81.3979 16.4406 79.9749 17.5946C78.5521 18.7379 76.4227 19.1487 74.3414 18.8651C72.2493 18.5921 70.2052 17.6247 69.1227 16.0448C68.0402 14.4542 67.9194 12.2511 68.1584 10.2433C68.3975 8.2248 68.9965 6.40155 70.0833 4.73181Z" fill="#FFDBB4"/>
<path d="M25.0833 4.73181C26.1701 3.06206 27.766 1.54596 29.6081 1.16491C31.4502 0.773183 33.5386 1.51651 35.4542 2.61123C37.3697 3.70596 39.0911 5.16262 39.4708 6.89735C39.8398 8.632 38.8459 10.6552 37.9907 12.6048C37.1249 14.5542 36.3979 16.4406 34.9749 17.5946C33.5521 18.7379 31.4227 19.1487 29.3414 18.8651C27.2493 18.5921 25.2052 17.6247 24.1227 16.0448C23.0402 14.4542 22.9194 12.2511 23.1584 10.2433C23.3975 8.2248 23.9965 6.40155 25.0833 4.73181Z" fill="#FFDBB4"/>
</svg>
